<svg width="43" height="43" viewBox="0 0 43 43" fill="none" xmlns="http://www.w3.org/2000/svg">
<rect width="42.7632" height="42.7632" rx="6.84211" fill="#364F6B" fill-opacity="0.2"/>
<path d="M27 14H26V13C26 12.7348 25.8946 12.4804 25.7071 12.2929C25.5196 12.1054 25.2652 12 25 12C24.7348 12 24.4804 12.1054 24.2929 12.2929C24.1054 12.4804 24 12.7348 24 13V14H18V13C18 12.7348 17.8946 12.4804 17.7071 12.2929C17.5196 12.1054 17.2652 12 17 12C16.7348 12 16.4804 12.1054 16.2929 12.2929C16.1054 12.4804 16 12.7348 16 13V14H15C14.2044 14 13.4413 14.3161 12.8787 14.8787C12.3161 15.4413 12 16.2044 12 17V29C12 29.7956 12.3161 30.5587 12.8787 31.1213C13.4413 31.6839 14.2044 32 15 32H27C27.7956 32 28.5587 31.6839 29.1213 31.1213C29.6839 30.5587 30 29.7956 30 29V17C30 16.2044 29.6839 15.4413 29.1213 14.8787C28.5587 14.3161 27.7956 14 27 14V14ZM15 16H16V17C16 17.2652 16.1054 17.5196 16.2929 17.7071C16.4804 17.8946 16.7348 18 17 18C17.2652 18 17.5196 17.8946 17.7071 17.7071C17.8946 17.5196 18 17.2652 18 17V16H24V17C24 17.2652 24.1054 17.5196 24.2929 17.7071C24.4804 17.8946 24.7348 18 25 18C25.2652 18 25.5196 17.8946 25.7071 17.7071C25.8946 17.5196 26 17.2652 26 17V16H27C27.2652 16 27.5196 16.1054 27.7071 16.2929C27.8946 16.4804 28 16.7348 28 17V21H14V17C14 16.7348 14.1054 16.4804 14.2929 16.2929C14.4804 16.1054 14.7348 16 15 16V16ZM27 30H15C14.7348 30 14.4804 29.8946 14.2929 29.7071C14.1054 29.5196 14 29.2652 14 29V23H28V29C28 29.2652 27.8946 29.5196 27.7071 29.7071C27.5196 29.8946 27.2652 30 27 30Z" fill="#364F6B"/>
<path d="M17 27C17.5523 27 18 26.5523 18 26C18 25.4477 17.5523 25 17 25C16.4477 25 16 25.4477 16 26C16 26.5523 16.4477 27 17 27Z" fill="#364F6B"/>
<path d="M25 25H21C20.7348 25 20.4804 25.1054 20.2929 25.2929C20.1054 25.4804 20 25.7348 20 26C20 26.2652 20.1054 26.5196 20.2929 26.7071C20.4804 26.8946 20.7348 27 21 27H25C25.2652 27 25.5196 26.8946 25.7071 26.7071C25.8946 26.5196 26 26.2652 26 26C26 25.7348 25.8946 25.4804 25.7071 25.2929C25.5196 25.1054 25.2652 25 25 25Z" fill="#364F6B"/>
</svg>
