<svg width="43" height="43" viewBox="0 0 43 43" fill="none" xmlns="http://www.w3.org/2000/svg">
<rect width="42.7632" height="42.7632" rx="6.84211" fill="#1E2A78" fill-opacity="0.2"/>
<path d="M22 18C22.7956 18 23.5587 18.3161 24.1213 18.8787C24.6839 19.4413 25 20.2044 25 21C25 21.2652 25.1054 21.5196 25.2929 21.7071C25.4804 21.8946 25.7348 22 26 22C26.2652 22 26.5196 21.8946 26.7071 21.7071C26.8946 21.5196 27 21.2652 27 21C27 19.6739 26.4732 18.4021 25.5355 17.4645C24.5979 16.5268 23.3261 16 22 16C21.7348 16 21.4804 16.1054 21.2929 16.2929C21.1054 16.4804 21 16.7348 21 17C21 17.2652 21.1054 17.5196 21.2929 17.7071C21.4804 17.8946 21.7348 18 22 18V18Z" fill="#1E2A78"/>
<path d="M22 14C23.8565 14 25.637 14.7375 26.9497 16.0503C28.2625 17.363 29 19.1435 29 21C29 21.2652 29.1054 21.5196 29.2929 21.7071C29.4804 21.8946 29.7348 22 30 22C30.2652 22 30.5196 21.8946 30.7071 21.7071C30.8946 21.5196 31 21.2652 31 21C31 18.6131 30.0518 16.3239 28.364 14.636C26.6761 12.9482 24.3869 12 22 12C21.7348 12 21.4804 12.1054 21.2929 12.2929C21.1054 12.4804 21 12.7348 21 13C21 13.2652 21.1054 13.5196 21.2929 13.7071C21.4804 13.8946 21.7348 14 22 14V14Z" fill="#1E2A78"/>
<path d="M30.75 25.91C30.695 25.7495 30.6 25.6056 30.4741 25.4919C30.3481 25.3781 30.1953 25.2984 30.03 25.26L24.03 23.89C23.8671 23.8531 23.6976 23.8575 23.5369 23.9029C23.3762 23.9484 23.2294 24.0333 23.11 24.15C22.97 24.28 22.96 24.29 22.31 25.53C20.1532 24.5362 18.425 22.8009 17.44 20.64C18.71 20 18.72 20 18.85 19.85C18.9667 19.7306 19.0516 19.5838 19.0971 19.4231C19.1425 19.2624 19.1469 19.0929 19.11 18.93L17.74 13C17.7016 12.8347 17.6219 12.6819 17.5081 12.5559C17.3944 12.43 17.2505 12.335 17.09 12.28C16.8565 12.1966 16.6153 12.1363 16.37 12.1C16.1173 12.0414 15.8593 12.0079 15.6 12C14.38 12 13.21 12.4846 12.3473 13.3473C11.4846 14.21 11 15.38 11 16.6C11.0053 20.6827 12.6295 24.5967 15.5164 27.4836C18.4033 30.3705 22.3173 31.9947 26.4 32C27.0041 32 27.6022 31.881 28.1603 31.6498C28.7184 31.4187 29.2255 31.0798 29.6527 30.6527C30.0798 30.2255 30.4187 29.7184 30.6498 29.1603C30.881 28.6022 31 28.0041 31 27.4C31.0003 27.1455 30.9802 26.8913 30.94 26.64C30.898 26.3916 30.8344 26.1474 30.75 25.91V25.91ZM26.4 30C22.8469 29.9974 19.4401 28.5847 16.9277 26.0723C14.4153 23.5599 13.0026 20.1531 13 16.6C13.0026 15.9112 13.2774 15.2515 13.7644 14.7644C14.2515 14.2774 14.9112 14.0026 15.6 14H15.93L17 18.64L16.46 18.92C15.6 19.37 14.92 19.73 15.28 20.51C15.8662 22.1696 16.8148 23.6777 18.0567 24.9249C19.2987 26.172 20.8029 27.1269 22.46 27.72C23.3 28.06 23.63 27.43 24.08 26.56L24.37 26.01L29 27.07V27.4C28.9974 28.0888 28.7226 28.7485 28.2356 29.2356C27.7485 29.7226 27.0888 29.9974 26.4 30V30Z" fill="#1E2A78"/>
</svg>
