<svg width="24" height="24" viewBox="0 0 24 24" fill="none" xmlns="http://www.w3.org/2000/svg">
<path d="M14.3099 16.38L12.9999 17.64V12C12.9999 11.7348 12.8946 11.4804 12.707 11.2929C12.5195 11.1054 12.2652 11 11.9999 11C11.7347 11 11.4804 11.1054 11.2928 11.2929C11.1053 11.4804 10.9999 11.7348 10.9999 12V17.59L9.70994 16.29C9.6167 16.1968 9.50601 16.1228 9.38419 16.0723C9.26237 16.0219 9.1318 15.9959 8.99994 15.9959C8.86808 15.9959 8.73751 16.0219 8.61569 16.0723C8.49387 16.1228 8.38318 16.1968 8.28994 16.29C8.1967 16.3832 8.12274 16.4939 8.07228 16.6158C8.02182 16.7376 7.99585 16.8681 7.99585 17C7.99585 17.1319 8.02182 17.2624 8.07228 17.3842C8.12274 17.5061 8.1967 17.6168 8.28994 17.71L11.2899 20.71C11.3834 20.8027 11.4942 20.876 11.616 20.9258C11.7379 20.9755 11.8683 21.0008 11.9999 21C12.2574 20.999 12.5046 20.8987 12.6899 20.72L15.6899 17.82C15.7961 17.7324 15.883 17.6239 15.9452 17.5013C16.0075 17.3786 16.0438 17.2444 16.0518 17.107C16.0598 16.9697 16.0394 16.8322 15.9919 16.7031C15.9443 16.574 15.8707 16.4561 15.7755 16.3568C15.6803 16.2575 15.5656 16.1788 15.4387 16.1259C15.3117 16.0729 15.1752 16.0466 15.0376 16.0488C14.9001 16.051 14.7645 16.0815 14.6393 16.1385C14.514 16.1955 14.4019 16.2777 14.3099 16.38V16.38Z" fill="#FFC200"/>
<path d="M17.6699 7C17.2619 5.82105 16.4965 4.79861 15.4802 4.07496C14.464 3.3513 13.2475 2.96242 11.9999 2.96242C10.7523 2.96242 9.5358 3.3513 8.51956 4.07496C7.50332 4.79861 6.73794 5.82105 6.3299 7C5.43145 7.12033 4.58261 7.48265 3.8742 8.04819C3.16578 8.61373 2.62443 9.36121 2.30806 10.2107C1.99169 11.0602 1.91221 11.9797 2.0781 12.8708C2.244 13.762 2.64904 14.5913 3.2499 15.27C3.32247 15.3978 3.42235 15.5081 3.5424 15.5929C3.66246 15.6778 3.79974 15.7351 3.94448 15.7609C4.08922 15.7866 4.23786 15.7801 4.3798 15.7418C4.52174 15.7036 4.6535 15.6345 4.76569 15.5395C4.87789 15.4445 4.96776 15.3259 5.02891 15.1922C5.09006 15.0586 5.12098 14.913 5.11947 14.766C5.11796 14.619 5.08406 14.4742 5.02018 14.3418C4.9563 14.2094 4.86402 14.0927 4.7499 14C4.36301 13.5675 4.10988 13.032 4.02118 12.4585C3.93249 11.885 4.01203 11.2981 4.25017 10.7689C4.48831 10.2397 4.87483 9.79089 5.36289 9.47693C5.85094 9.16296 6.41958 8.9973 6.9999 9H7.0999C7.33384 9.00471 7.56203 8.92724 7.74475 8.78107C7.92747 8.63489 8.05314 8.42927 8.0999 8.2C8.28351 7.29576 8.77408 6.48282 9.48849 5.89889C10.2029 5.31497 11.0972 4.99599 12.0199 4.99599C12.9426 4.99599 13.8369 5.31497 14.5513 5.89889C15.2657 6.48282 15.7563 7.29576 15.9399 8.2C15.9866 8.42927 16.1123 8.63489 16.295 8.78107C16.4778 8.92724 16.7059 9.00471 16.9399 9H16.9999C17.5802 8.9973 18.1488 9.16296 18.6369 9.47693C19.125 9.79089 19.5115 10.2397 19.7496 10.7689C19.9878 11.2981 20.0673 11.885 19.9786 12.4585C19.8899 13.032 19.6368 13.5675 19.2499 14C19.1618 14.0988 19.0942 14.2141 19.051 14.3392C19.0078 14.4643 18.9899 14.5967 18.9983 14.7288C19.0066 14.8609 19.0411 14.99 19.0998 15.1086C19.1584 15.2273 19.24 15.3331 19.3399 15.42C19.5222 15.5808 19.7568 15.6696 19.9999 15.67C20.1419 15.6698 20.2822 15.6394 20.4115 15.5808C20.5408 15.5222 20.6562 15.4367 20.7499 15.33C21.3674 14.6524 21.7868 13.8182 21.9621 12.9183C22.1375 12.0185 22.0621 11.0878 21.7441 10.228C21.4262 9.36812 20.878 8.61223 20.1595 8.04293C19.4409 7.47363 18.5797 7.11284 17.6699 7V7Z" fill="#FFC200"/>
</svg>
