<svg width="43" height="43" viewBox="0 0 43 43" fill="none" xmlns="http://www.w3.org/2000/svg">
<rect width="42.7632" height="42.7632" rx="6.84211" fill="#581B98" fill-opacity="0.2"/>
<path d="M28.74 18.33L23.3 12.33C23.2065 12.2264 23.0924 12.1435 22.9649 12.0867C22.8375 12.0299 22.6995 12.0003 22.56 12H15.56C15.2277 11.996 14.898 12.0576 14.5895 12.1811C14.281 12.3045 13.9999 12.4876 13.7622 12.7198C13.5245 12.9519 13.3348 13.2286 13.204 13.5341C13.0732 13.8395 13.0039 14.1677 13 14.5V29.5C13.0039 29.8322 13.0732 30.1605 13.204 30.4659C13.3348 30.7714 13.5245 31.0481 13.7622 31.2802C13.9999 31.5124 14.281 31.6954 14.5895 31.8189C14.898 31.9424 15.2277 32.004 15.56 32H26.44C26.7723 32.004 27.102 31.9424 27.4105 31.8189C27.719 31.6954 28.0001 31.5124 28.2378 31.2802C28.4755 31.0481 28.6652 30.7714 28.796 30.4659C28.9268 30.1605 28.9961 29.8322 29 29.5V19C28.9994 18.7522 28.9067 18.5134 28.74 18.33V18.33ZM26.65 19H22.71C22.5038 18.9797 22.3139 18.8792 22.1811 18.7202C22.0483 18.5613 21.9833 18.3565 22 18.15V14H22.11L26.65 19ZM26.44 30H15.56C15.4904 30.004 15.4206 29.9943 15.3548 29.9714C15.2889 29.9484 15.2282 29.9127 15.1762 29.8662C15.1242 29.8198 15.0818 29.7635 15.0516 29.7007C15.0214 29.6378 15.0038 29.5696 15 29.5V14.5C15.0038 14.4304 15.0214 14.3622 15.0516 14.2993C15.0818 14.2365 15.1242 14.1802 15.1762 14.1338C15.2282 14.0873 15.2889 14.0516 15.3548 14.0286C15.4206 14.0057 15.4904 13.9959 15.56 14H20V18.15C19.9839 18.8866 20.2598 19.5997 20.7675 20.1337C21.2752 20.6676 21.9735 20.979 22.71 21H27V29.5C26.9962 29.5696 26.9786 29.6378 26.9484 29.7007C26.9182 29.7635 26.8758 29.8198 26.8238 29.8662C26.7718 29.9127 26.7111 29.9484 26.6452 29.9714C26.5794 29.9943 26.5096 30.004 26.44 30V30Z" fill="#581B98"/>
</svg>
