<svg width="114" height="48" viewBox="0 0 114 48" fill="none" xmlns="http://www.w3.org/2000/svg">
<path d="M52.3343 26.5814H46.8468V32.25H43.9886V18.3786H53.0203V20.6937H46.8468V24.2759H52.3343V26.5814ZM57.4027 32.25H54.6399V21.9417H57.4027V32.25ZM54.4779 19.2742C54.4779 18.8613 54.6145 18.5215 54.8876 18.2548C55.167 17.988 55.5449 17.8546 56.0213 17.8546C56.4913 17.8546 56.866 17.988 57.1455 18.2548C57.4249 18.5215 57.5647 18.8613 57.5647 19.2742C57.5647 19.6934 57.4218 20.0363 57.136 20.3031C56.8565 20.5698 56.4849 20.7032 56.0213 20.7032C55.5576 20.7032 55.1829 20.5698 54.8971 20.3031C54.6176 20.0363 54.4779 19.6934 54.4779 19.2742ZM62.2139 21.9417L62.2996 23.1326C63.0364 22.2117 64.024 21.7512 65.2625 21.7512C66.355 21.7512 67.1679 22.0719 67.7015 22.7134C68.235 23.3549 68.5081 24.314 68.5208 25.5906V32.25H65.7675V25.6573C65.7675 25.073 65.6404 24.6506 65.3864 24.3902C65.1323 24.1234 64.71 23.9901 64.1193 23.9901C63.3444 23.9901 62.7633 24.3203 62.3758 24.9809V32.25H59.6225V21.9417H62.2139ZM75.3612 32.4405C73.8496 32.4405 72.6174 31.9769 71.6647 31.0496C70.7183 30.1223 70.2452 28.887 70.2452 27.3436V27.0768C70.2452 26.0415 70.4452 25.1174 70.8454 24.3044C71.2455 23.4851 71.8108 22.8563 72.5412 22.4181C73.2779 21.9735 74.1163 21.7512 75.0563 21.7512C76.4663 21.7512 77.5746 22.1958 78.3813 23.085C79.1942 23.9742 79.6007 25.2349 79.6007 26.8672V27.9914H73.0366C73.1255 28.6647 73.3923 29.2045 73.8369 29.611C74.2878 30.0175 74.8563 30.2207 75.5422 30.2207C76.6029 30.2207 77.4317 29.8365 78.0288 29.068L79.3816 30.5828C78.9688 31.1671 78.4098 31.6244 77.7048 31.9547C76.9998 32.2786 76.2186 32.4405 75.3612 32.4405ZM75.0468 23.9805C74.5006 23.9805 74.056 24.1647 73.713 24.5331C73.3764 24.9015 73.1604 25.4286 73.0652 26.1146H76.895V25.8955C76.8823 25.2857 76.7172 24.8157 76.3996 24.4855C76.0821 24.1488 75.6311 23.9805 75.0468 23.9805ZM84.2118 27.3626V32.25H81.3537V18.3786H86.7651C87.8067 18.3786 88.7213 18.5692 89.5089 18.9502C90.3028 19.3313 90.9125 19.8744 91.338 20.5794C91.7636 21.278 91.9764 22.0751 91.9764 22.9707C91.9764 24.3299 91.5095 25.4032 90.5759 26.1908C89.6486 26.972 88.3624 27.3626 86.7174 27.3626H84.2118ZM84.2118 25.0476H86.7651C87.5209 25.0476 88.0957 24.8697 88.4895 24.514C88.8896 24.1584 89.0897 23.6503 89.0897 22.9897C89.0897 22.3101 88.8896 21.7607 88.4895 21.3415C88.0893 20.9223 87.5368 20.7064 86.8318 20.6937H84.2118V25.0476ZM99.6266 32.25C99.4996 32.0023 99.4075 31.6943 99.3503 31.3259C98.6834 32.069 97.8164 32.4405 96.7494 32.4405C95.7395 32.4405 94.9012 32.1484 94.2343 31.5641C93.5737 30.9797 93.2435 30.243 93.2435 29.3538C93.2435 28.2613 93.6468 27.423 94.4534 26.8386C95.2664 26.2543 96.4382 25.959 97.9689 25.9526H99.236V25.3619C99.236 24.8856 99.1121 24.5045 98.8644 24.2187C98.6231 23.9329 98.2388 23.79 97.7116 23.79C97.248 23.79 96.8828 23.9011 96.616 24.1234C96.3556 24.3457 96.2254 24.6506 96.2254 25.038H93.4721C93.4721 24.441 93.6563 23.8884 94.0247 23.3803C94.3931 22.8722 94.9139 22.4753 95.5871 22.1894C96.2604 21.8973 97.0162 21.7512 97.8545 21.7512C99.1248 21.7512 100.132 22.0719 100.875 22.7134C101.624 23.3486 101.999 24.2441 101.999 25.4001V29.8682C102.005 30.8463 102.142 31.5863 102.408 32.088V32.25H99.6266ZM97.3496 30.3351C97.7561 30.3351 98.1308 30.2461 98.4738 30.0683C98.8168 29.8841 99.0708 29.6396 99.236 29.3347V27.5627H98.207C96.8288 27.5627 96.0952 28.039 96.0063 28.9918L95.9968 29.1537C95.9968 29.4967 96.1174 29.7793 96.3588 30.0016C96.6002 30.2239 96.9304 30.3351 97.3496 30.3351ZM107.81 28.3534L109.716 21.9417H112.669L108.525 33.8505L108.296 34.3936C107.68 35.7401 106.664 36.4133 105.248 36.4133C104.847 36.4133 104.441 36.353 104.028 36.2323V34.1459L104.447 34.1554C104.968 34.1554 105.356 34.076 105.61 33.9172C105.87 33.7584 106.073 33.4949 106.219 33.1265L106.543 32.2786L102.932 21.9417H105.895L107.81 28.3534Z" fill="#00162A"/>
<path d="M38.5848 0H20.5978V43.5957L38.5848 0Z" fill="#00162A"/>
<path d="M4.74489 7.31674H19.9882V43.2909L4.74489 7.31674Z" fill="#00162A"/>
<path d="M0.00031801 24.9029L9.4696 20.6869L19.6376 43.5246L0.00031801 24.9029Z" fill="#00162A"/>
</svg>
