<svg width="40" height="40" viewBox="0 0 40 40" fill="none" xmlns="http://www.w3.org/2000/svg">
<rect width="40" height="40" rx="4" fill="#00162A" fill-opacity="0.3"/>
<path d="M17 11H13C12.4696 11 11.9609 11.2107 11.5858 11.5858C11.2107 11.9609 11 12.4696 11 13V17C11 17.5304 11.2107 18.0391 11.5858 18.4142C11.9609 18.7893 12.4696 19 13 19H17C17.5304 19 18.0391 18.7893 18.4142 18.4142C18.7893 18.0391 19 17.5304 19 17V13C19 12.4696 18.7893 11.9609 18.4142 11.5858C18.0391 11.2107 17.5304 11 17 11ZM13 17V13H17V17H13Z" fill="#00162A"/>
<path d="M27 11H23C22.4696 11 21.9609 11.2107 21.5858 11.5858C21.2107 11.9609 21 12.4696 21 13V17C21 17.5304 21.2107 18.0391 21.5858 18.4142C21.9609 18.7893 22.4696 19 23 19H27C27.5304 19 28.0391 18.7893 28.4142 18.4142C28.7893 18.0391 29 17.5304 29 17V13C29 12.4696 28.7893 11.9609 28.4142 11.5858C28.0391 11.2107 27.5304 11 27 11ZM23 17V13H27V17H23Z" fill="#00162A"/>
<path d="M17 21H13C12.4696 21 11.9609 21.2107 11.5858 21.5858C11.2107 21.9609 11 22.4696 11 23V27C11 27.5304 11.2107 28.0391 11.5858 28.4142C11.9609 28.7893 12.4696 29 13 29H17C17.5304 29 18.0391 28.7893 18.4142 28.4142C18.7893 28.0391 19 27.5304 19 27V23C19 22.4696 18.7893 21.9609 18.4142 21.5858C18.0391 21.2107 17.5304 21 17 21ZM13 27V23H17V27H13Z" fill="#00162A"/>
<path d="M27 21H23C22.4696 21 21.9609 21.2107 21.5858 21.5858C21.2107 21.9609 21 22.4696 21 23V27C21 27.5304 21.2107 28.0391 21.5858 28.4142C21.9609 28.7893 22.4696 29 23 29H27C27.5304 29 28.0391 28.7893 28.4142 28.4142C28.7893 28.0391 29 27.5304 29 27V23C29 22.4696 28.7893 21.9609 28.4142 21.5858C28.0391 21.2107 27.5304 21 27 21ZM23 27V23H27V27H23Z" fill="#00162A"/>
</svg>
