<svg width="44" height="44" viewBox="0 0 44 44" fill="none" xmlns="http://www.w3.org/2000/svg">
<rect x="0.302734" y="0.513184" width="42.7632" height="42.7632" rx="6.84211" fill="#581B98" fill-opacity="0.2"/>
<path d="M28 15H14C13.2044 15 12.4413 15.3161 11.8787 15.8787C11.3161 16.4413 11 17.2044 11 18V26C11 26.7956 11.3161 27.5587 11.8787 28.1213C12.4413 28.6839 13.2044 29 14 29H28C28.7956 29 29.5587 28.6839 30.1213 28.1213C30.6839 27.5587 31 26.7956 31 26V18C31 17.2044 30.6839 16.4413 30.1213 15.8787C29.5587 15.3161 28.7956 15 28 15ZM13 18C13 17.7348 13.1054 17.4804 13.2929 17.2929C13.4804 17.1054 13.7348 17 14 17H28C28.2652 17 28.5196 17.1054 28.7071 17.2929C28.8946 17.4804 29 17.7348 29 18V19H13V18ZM29 26C29 26.2652 28.8946 26.5196 28.7071 26.7071C28.5196 26.8946 28.2652 27 28 27H14C13.7348 27 13.4804 26.8946 13.2929 26.7071C13.1054 26.5196 13 26.2652 13 26V21H29V26Z" fill="#581B98"/>
<path d="M16 25H20C20.2652 25 20.5196 24.8946 20.7071 24.7071C20.8946 24.5196 21 24.2652 21 24C21 23.7348 20.8946 23.4804 20.7071 23.2929C20.5196 23.1054 20.2652 23 20 23H16C15.7348 23 15.4804 23.1054 15.2929 23.2929C15.1054 23.4804 15 23.7348 15 24C15 24.2652 15.1054 24.5196 15.2929 24.7071C15.4804 24.8946 15.7348 25 16 25Z" fill="#581B98"/>
<path d="M24 25H26C26.2652 25 26.5196 24.8946 26.7071 24.7071C26.8946 24.5196 27 24.2652 27 24C27 23.7348 26.8946 23.4804 26.7071 23.2929C26.5196 23.1054 26.2652 23 26 23H24C23.7348 23 23.4804 23.1054 23.2929 23.2929C23.1054 23.4804 23 23.7348 23 24C23 24.2652 23.1054 24.5196 23.2929 24.7071C23.4804 24.8946 23.7348 25 24 25V25Z" fill="#581B98"/>
</svg>
