<svg width="43" height="43" viewBox="0 0 43 43" fill="none" xmlns="http://www.w3.org/2000/svg">
<rect width="42.7632" height="42.7632" rx="6.84211" fill="#1E2A78" fill-opacity="0.2"/>
<path d="M29.6201 13.22C29.5039 13.126 29.3681 13.0593 29.2228 13.0247C29.0774 12.9901 28.9261 12.9885 28.7801 13.02L21.0001 14.77L13.2201 13C13.0717 12.9665 12.9176 12.9673 12.7696 13.0023C12.6216 13.0373 12.4835 13.1056 12.3658 13.202C12.2482 13.2985 12.1541 13.4205 12.0907 13.5587C12.0273 13.697 11.9963 13.8479 12.0001 14V26.2C11.9944 26.4312 12.069 26.6571 12.2113 26.8395C12.3535 27.0218 12.5545 27.1492 12.7801 27.2L20.7801 29H21.2201L29.2201 27.2C29.4456 27.1492 29.6466 27.0218 29.7889 26.8395C29.9311 26.6571 30.0057 26.4312 30.0001 26.2V14C29.9994 13.8498 29.9648 13.7017 29.8991 13.5666C29.8333 13.4316 29.7379 13.3131 29.6201 13.22ZM14.0001 15.25L20.0001 16.6V26.75L14.0001 25.4V15.25ZM28.0001 25.4L22.0001 26.75V16.6L28.0001 15.25V25.4Z" fill="#1E2A78"/>
</svg>
